<svg width="512" height="512" viewBox="0 0 512 512" fill="none" xmlns="http://www.w3.org/2000/svg">
<circle cx="256" cy="256" r="243" fill="#65B152"/>
<path d="M244.136 102.052C248.028 90.0746 264.972 90.0746 268.864 102.052L296.8 188.031C298.541 193.388 303.532 197.014 309.164 197.014H399.568C412.162 197.014 417.398 213.129 407.21 220.531L334.071 273.67C329.515 276.98 327.608 282.848 329.348 288.204L357.285 374.184C361.176 386.161 347.468 396.121 337.28 388.719L264.141 335.58C259.585 332.27 253.415 332.27 248.859 335.58L175.72 388.719C165.532 396.121 151.824 386.161 155.715 374.184L183.652 288.204C185.392 282.848 183.485 276.98 178.929 273.67L105.79 220.531C95.602 213.129 100.838 197.014 113.432 197.014H203.836C209.468 197.014 214.459 193.388 216.2 188.031L244.136 102.052Z" fill="#D2D2D2"/>
</svg>
