<svg width="512" height="512" viewBox="0 0 512 512" fill="none" xmlns="http://www.w3.org/2000/svg">
<circle cx="256" cy="256" r="243" fill="#E30004"/>
<path d="M195.5 346.968C195.5 342.55 191.918 338.968 187.5 338.968H132.5C128.082 338.968 124.5 342.55 124.5 346.968V399.968C124.5 404.386 128.082 407.968 132.5 407.968H187.5C191.918 407.968 195.5 404.386 195.5 399.968V346.968Z" fill="#D2D2D2"/>
<path d="M88.913 139.932C87.5271 142.345 88.1159 145.246 89.9466 147.342L117.472 178.856C119.849 181.578 123.743 182.354 126.804 180.433C141.872 170.976 164.855 152.395 183.509 179.54C208.234 215.519 127.5 220.209 127.5 305.54C127.5 305.658 193.5 306.658 193.5 306.54C193.5 257.921 256 256.158 256 193.54C256 121.422 206 100.468 164 104.468C111.755 109.444 94.1019 130.896 88.913 139.932Z" fill="#D2D2D2"/>
<path d="M364.5 346.968C364.5 342.55 360.918 338.968 356.5 338.968H301.5C297.082 338.968 293.5 342.55 293.5 346.968V399.968C293.5 404.386 297.082 407.968 301.5 407.968H356.5C360.918 407.968 364.5 404.386 364.5 399.968V346.968Z" fill="#D2D2D2"/>
<path d="M257.913 139.932C256.527 142.345 257.116 145.246 258.947 147.342L286.472 178.856C288.849 181.578 292.743 182.354 295.804 180.433C310.872 170.976 333.855 152.395 352.509 179.54C377.234 215.519 296.5 220.209 296.5 305.54C296.5 305.658 362.5 306.658 362.5 306.54C362.5 257.921 425 256.158 425 193.54C425 121.422 375 100.468 333 104.468C280.755 109.444 263.102 130.896 257.913 139.932Z" fill="#D2D2D2"/>
</svg>
