<svg width="512" height="512" viewBox="0 0 512 512" fill="none" xmlns="http://www.w3.org/2000/svg">
<circle cx="256" cy="256" r="243" fill="#BB9A6C"/>
<path d="M100 109.814C100 103.899 106.198 100.029 111.513 102.627L228.513 159.807C231.259 161.149 233 163.938 233 166.995V413.186C233 419.101 226.802 422.971 221.487 420.373L104.487 363.193C101.741 361.851 100 359.062 100 356.005V109.814Z" fill="#D2D2D2"/>
<path d="M279.5 166.995C279.5 163.938 281.241 161.149 283.987 159.807L400.987 102.627C406.302 100.029 412.5 103.899 412.5 109.814V356.005C412.5 359.062 410.759 361.851 408.013 363.193L291.013 420.373C285.698 422.971 279.5 419.101 279.5 413.186V166.995Z" fill="#D2D2D2"/>
</svg>
