<svg width="512" height="512" viewBox="0 0 512 512" fill="none" xmlns="http://www.w3.org/2000/svg">
<circle cx="256" cy="256" r="243" fill="#13C1A4"/>
<path d="M160 341C160 336.582 163.582 333 168 333H223C227.418 333 231 336.582 231 341V394C231 398.418 227.418 402 223 402H168C163.582 402 160 398.418 160 394V341Z" fill="#D2D2D2"/>
<path d="M352 341C352 336.582 348.418 333 344 333H289C284.582 333 281 336.582 281 341V394C281 398.418 284.582 402 289 402H344C348.418 402 352 398.418 352 394V341Z" fill="#D2D2D2"/>
<path d="M156.191 105.187C156.086 100.144 160.145 96 165.189 96H224.811C229.855 96 233.914 100.144 233.809 105.187L230.023 287.187C229.921 292.084 225.923 296 221.025 296H168.975C164.077 296 160.079 292.084 159.977 287.187L156.191 105.187Z" fill="#D2D2D2"/>
<path d="M355.809 105.187C355.914 100.144 351.855 96 346.811 96H287.189C282.145 96 278.086 100.144 278.191 105.187L281.977 287.187C282.079 292.084 286.077 296 290.975 296H343.025C347.923 296 351.921 292.084 352.023 287.187L355.809 105.187Z" fill="#D2D2D2"/>
</svg>
