<svg width="512" height="512" viewBox="0 0 512 512" fill="none" xmlns="http://www.w3.org/2000/svg">
<circle cx="256" cy="256" r="243" fill="#65B152"/>
<rect x="114" y="223" width="58" height="141" rx="12" fill="#D2D2D2"/>
<path d="M243 195.844C257.5 177.389 268 166.344 277 120.844C281.451 98.3437 307.5 115.344 307.5 115.344C321 124.844 320.5 140.344 320.5 146.344C320.5 160.344 310 187.344 310 187.344C304 205.844 308.273 213.637 310.5 213.844C352 217.688 361.5 214.688 365.5 214.688C374 214.688 381.016 217.188 385 224.688C393.5 240.688 384 253.188 384 258.188C384 267.34 389.91 272.119 388.5 281.188C387.09 290.256 380 294.844 378 303.188C377.243 306.344 382 307.531 381 322.688C380.472 330.683 372.5 333.688 368.5 339.688C366.284 344.78 366.283 348.281 364 353.344C359.775 362.712 352.421 364.742 343.5 369.844C341 371.274 274.19 368.886 251.5 363.844C238 360.844 222.5 356.844 222.5 356.844L189 353.344V228.844C189 228.844 226.5 216.844 243 195.844Z" fill="#D2D2D2"/>
</svg>
