<svg width="512" height="512" viewBox="0 0 512 512" fill="none" xmlns="http://www.w3.org/2000/svg">
<circle cx="256" cy="256" r="243" fill="#6C96BB"/>
<path d="M291 341C291 336.582 287.418 333 283 333H228C223.582 333 220 336.582 220 341V394C220 398.418 223.582 402 228 402H283C287.418 402 291 398.418 291 394V341Z" fill="#D2D2D2"/>
<path d="M294.809 105.187C294.914 100.144 290.855 96 285.811 96H226.189C221.145 96 217.086 100.144 217.191 105.187L220.977 287.187C221.079 292.084 225.077 296 229.975 296H282.025C286.923 296 290.921 292.084 291.023 287.187L294.809 105.187Z" fill="#D2D2D2"/>
</svg>
