<svg width="512" height="512" viewBox="0 0 512 512" fill="none" xmlns="http://www.w3.org/2000/svg">
<circle cx="256" cy="256" r="243" fill="#C4A235"/>
<path d="M387.5 348C387.5 343.582 383.918 340 379.5 340H324.5C320.082 340 316.5 343.582 316.5 348V401C316.5 405.418 320.082 409 324.5 409H379.5C383.918 409 387.5 405.418 387.5 401V348Z" fill="#D2D2D2"/>
<path d="M229.5 348C229.5 343.582 225.918 340 221.5 340H166.5C162.082 340 158.5 343.582 158.5 348V401C158.5 405.418 162.082 409 166.5 409H221.5C225.918 409 229.5 405.418 229.5 401V348Z" fill="#D2D2D2"/>
<path d="M122.913 140.964C121.527 143.377 122.116 146.278 123.947 148.374L151.472 179.888C153.849 182.61 157.743 183.386 160.804 181.465C175.872 172.008 198.855 153.427 217.509 180.572C242.234 216.551 161.5 221.241 161.5 306.571C161.5 306.69 227.5 307.69 227.5 307.571C227.5 258.953 290 257.19 290 194.572C290 122.453 240 101.5 198 105.5C145.755 110.476 128.102 131.928 122.913 140.964Z" fill="#D2D2D2"/>
<path d="M391.309 112.187C391.414 107.144 387.355 103 382.311 103H322.689C317.645 103 313.586 107.144 313.691 112.187L317.477 294.187C317.579 299.084 321.577 303 326.475 303H378.525C383.423 303 387.421 299.084 387.523 294.187L391.309 112.187Z" fill="#D2D2D2"/>
</svg>
