<svg width="512" height="512" viewBox="0 0 512 512" fill="none" xmlns="http://www.w3.org/2000/svg">
<circle cx="256" cy="256" r="243" fill="#E08155"/>
<path d="M279.5 346.968C279.5 342.55 275.918 338.968 271.5 338.968H216.5C212.082 338.968 208.5 342.55 208.5 346.968V399.968C208.5 404.386 212.082 407.968 216.5 407.968H271.5C275.918 407.968 279.5 404.386 279.5 399.968V346.968Z" fill="#D2D2D2"/>
<path d="M172.913 139.932C171.527 142.345 172.116 145.246 173.947 147.342L201.472 178.856C203.849 181.578 207.743 182.354 210.804 180.433C225.872 170.976 248.855 152.395 267.509 179.54C292.234 215.519 211.5 220.209 211.5 305.54C211.5 305.658 277.5 306.658 277.5 306.54C277.5 257.921 340 256.158 340 193.54C340 121.422 290 100.468 248 104.468C195.755 109.444 178.102 130.896 172.913 139.932Z" fill="#D2D2D2"/>
</svg>
