<svg width="512" height="512" viewBox="0 0 512 512" fill="none" xmlns="http://www.w3.org/2000/svg">
<circle cx="256" cy="256" r="243" fill="#F15F4F"/>
<path d="M122.364 173.364C118.849 169.849 118.849 164.151 122.364 160.636L164.79 118.21C168.305 114.695 174.004 114.695 177.518 118.21L390.492 331.183C394.007 334.698 394.006 340.396 390.492 343.911L348.065 386.337C344.551 389.852 338.852 389.852 335.337 386.337L122.364 173.364Z" fill="#D2D2D2"/>
<path d="M335.636 118.364C339.151 114.849 344.849 114.849 348.364 118.364L390.79 160.79C394.305 164.305 394.305 170.004 390.79 173.518L177.817 386.492C174.302 390.007 168.604 390.006 165.089 386.492L122.663 344.065C119.148 340.551 119.148 334.852 122.663 331.337L335.636 118.364Z" fill="#D2D2D2"/>
</svg>
