<svg width="512" height="512" viewBox="0 0 512 512" fill="none" xmlns="http://www.w3.org/2000/svg">
<path d="M248.5 42C271.972 42 291 61.0279 291 84.5C291 88.0523 290.561 91.5047 289.738 94.8057L289.529 95.6426L288.908 96.2412C288.606 96.5327 288.304 96.8262 288.004 97.125C285.917 99.2047 283.917 101.46 282.002 103.872L282.014 103.88L280.092 106.489C261.924 131.157 252.107 169.603 246.876 202.295C244.272 218.567 242.824 233.276 242.027 243.916C241.629 249.234 241.394 253.532 241.259 256.496C241.234 257.044 241.213 257.546 241.194 258H267.207C267.226 257.585 267.247 257.128 267.271 256.631C267.409 253.893 267.639 249.943 268.012 245.074C268.756 235.34 270.071 221.918 272.352 207.175C276.885 177.865 285.326 142.681 301.141 121.131L302.987 118.614L305.429 120.561C341.006 148.912 374.29 191.498 380.53 257.719H380.529C384.116 293.888 370.118 332.755 346.798 362.537C345.345 364.392 343.855 366.214 342.328 368H350C382.585 368 409 394.415 409 427V469H103V427C103 394.415 129.415 368 162 368H168.759C167.232 366.214 165.742 364.392 164.289 362.537C140.969 332.755 126.97 293.888 130.557 257.719L130.781 255.453C138.257 183.84 177.511 140.256 216.454 112.415C209.944 104.948 206 95.1848 206 84.5L206.014 83.4033C206.595 60.4381 225.395 42 248.5 42Z" fill="#3E3E3E" stroke="#606060" stroke-width="6"/>
</svg>
