<svg width="512" height="512" viewBox="0 0 512 512" fill="none" xmlns="http://www.w3.org/2000/svg">
<path d="M292.52 37V70H325.52V136H293.396L296.867 149.391L338.718 145.531L338.855 145.519H367.389C395.135 145.519 421.256 158.605 437.869 180.828H437.87L439.74 183.329V183.33C446.994 193.033 452.166 204.129 454.933 215.923L458.194 229.823C464.212 255.48 458.414 282.484 442.396 303.41L432.848 315.883L432.769 315.986L432.682 316.081L379.863 373.976C379.371 374.514 378.848 375.016 378.298 375.482C396.33 385.577 408.519 404.865 408.519 427V469H102.519V427C102.519 404.866 114.707 385.579 132.738 375.483C132.188 375.017 131.665 374.514 131.174 373.976L78.3557 316.081L78.2688 315.986L78.1897 315.883L68.6418 303.41C52.6236 282.484 46.8269 255.48 52.845 229.823L56.1057 215.923C58.8722 204.129 64.0439 193.033 71.2971 183.33L73.1663 180.829L73.9524 179.794C90.5969 158.2 116.336 145.519 143.65 145.519H172.183L172.321 145.531L214.17 149.391L217.643 136H185.52V70H218.52V37H292.52ZM356.086 222.171C341.606 211.496 325.976 214.358 313.437 220.324C303.251 225.171 295.54 231.891 293.027 234.221V310H320.374C324.152 306.851 340.449 292.869 352.768 276.048C359.807 266.437 365.307 256.215 366.674 246.771C367.35 242.098 367.005 237.688 365.399 233.629C363.797 229.581 360.868 225.696 356.086 222.171ZM197.565 220.307C185.031 214.352 169.418 211.506 154.951 222.171C150.175 225.693 147.247 229.572 145.644 233.615C144.036 237.669 143.688 242.073 144.359 246.739C145.715 256.171 151.199 266.38 158.224 275.984C165.206 285.53 173.493 294.187 180.077 300.488C183.363 303.633 186.211 306.176 188.239 307.936C189.282 308.841 190.108 309.537 190.663 310H218.012V234.221C215.495 231.888 207.768 225.155 197.565 220.307Z" fill="#3E3E3E" stroke="#606060" stroke-width="6"/>
</svg>
