<svg width="4096" height="4096" viewBox="0 0 4096 4096" fill="none" xmlns="http://www.w3.org/2000/svg">
<g clip-path="url(#clip0_7_264)">
<path d="M0 0H512V512H0V0Z" fill="#DCD8CA"/>
<path d="M0 512H512V1024H0V512Z" fill="#DCD8CA"/>
<path d="M0 512H512V1024H0V512Z" fill="#8C9881"/>
<path d="M512 512H1024V1024H512V512Z" fill="#DCD8CA"/>
<path d="M512 0H1024V512H512V0Z" fill="#DCD8CA"/>
<path d="M512 0H1024V512H512V0Z" fill="#8C9881"/>
<path d="M1024 0H1536V512H1024V0Z" fill="#DCD8CA"/>
<path d="M1024 512H1536V1024H1024V512Z" fill="#DCD8CA"/>
<path d="M1024 512H1536V1024H1024V512Z" fill="#8C9881"/>
<path d="M1536 512H2048V1024H1536V512Z" fill="#DCD8CA"/>
<path d="M1536 0H2048V512H1536V0Z" fill="#DCD8CA"/>
<path d="M1536 0H2048V512H1536V0Z" fill="#8C9881"/>
<path d="M2048 0H2560V512H2048V0Z" fill="#DCD8CA"/>
<path d="M2048 512H2560V1024H2048V512Z" fill="#DCD8CA"/>
<path d="M2048 512H2560V1024H2048V512Z" fill="#8C9881"/>
<path d="M2560 512H3072V1024H2560V512Z" fill="#DCD8CA"/>
<path d="M2560 0H3072V512H2560V0Z" fill="#DCD8CA"/>
<path d="M2560 0H3072V512H2560V0Z" fill="#8C9881"/>
<path d="M3072 0L3584 0V512H3072V0Z" fill="#DCD8CA"/>
<path d="M3072 512H3584V1024H3072V512Z" fill="#DCD8CA"/>
<path d="M3072 512H3584V1024H3072V512Z" fill="#8C9881"/>
<path d="M3584 512H4096V1024H3584V512Z" fill="#DCD8CA"/>
<path d="M3584 0H4096V512H3584V0Z" fill="#DCD8CA"/>
<path d="M3584 0H4096V512H3584V0Z" fill="#8C9881"/>
<path d="M0 1024H512V1536H0V1024Z" fill="#DCD8CA"/>
<path d="M0 1536H512V2048H0V1536Z" fill="#DCD8CA"/>
<path d="M0 1536H512V2048H0V1536Z" fill="#8C9881"/>
<path d="M512 1536H1024V2048H512V1536Z" fill="#DCD8CA"/>
<path d="M512 1024H1024V1536H512V1024Z" fill="#DCD8CA"/>
<path d="M512 1024H1024V1536H512V1024Z" fill="#8C9881"/>
<path d="M1024 1024H1536V1536H1024V1024Z" fill="#DCD8CA"/>
<path d="M1024 1536H1536V2048H1024V1536Z" fill="#DCD8CA"/>
<path d="M1024 1536H1536V2048H1024V1536Z" fill="#8C9881"/>
<path d="M1536 1536H2048V2048H1536V1536Z" fill="#DCD8CA"/>
<path d="M1536 1024H2048V1536H1536V1024Z" fill="#DCD8CA"/>
<path d="M1536 1024H2048V1536H1536V1024Z" fill="#8C9881"/>
<path d="M2048 1024H2560V1536H2048V1024Z" fill="#DCD8CA"/>
<path d="M2048 1536H2560V2048H2048V1536Z" fill="#DCD8CA"/>
<path d="M2048 1536H2560V2048H2048V1536Z" fill="#8C9881"/>
<path d="M2560 1536H3072V2048H2560V1536Z" fill="#DCD8CA"/>
<path d="M2560 1024H3072V1536H2560V1024Z" fill="#DCD8CA"/>
<path d="M2560 1024H3072V1536H2560V1024Z" fill="#8C9881"/>
<path d="M3072 1024H3584V1536H3072V1024Z" fill="#DCD8CA"/>
<path d="M3072 1536H3584V2048H3072V1536Z" fill="#DCD8CA"/>
<path d="M3072 1536H3584V2048H3072V1536Z" fill="#8C9881"/>
<path d="M3584 1536H4096V2048H3584V1536Z" fill="#DCD8CA"/>
<path d="M3584 1024H4096V1536H3584V1024Z" fill="#DCD8CA"/>
<path d="M3584 1024H4096V1536H3584V1024Z" fill="#8C9881"/>
<path d="M0 2048H512V2560H0V2048Z" fill="#DCD8CA"/>
<path d="M0 2560H512V3072H0V2560Z" fill="#DCD8CA"/>
<path d="M0 2560H512V3072H0V2560Z" fill="#8C9881"/>
<path d="M512 2560H1024V3072H512V2560Z" fill="#DCD8CA"/>
<path d="M512 2048H1024V2560H512V2048Z" fill="#DCD8CA"/>
<path d="M512 2048H1024V2560H512V2048Z" fill="#8C9881"/>
<path d="M1024 2048H1536V2560H1024V2048Z" fill="#DCD8CA"/>
<path d="M1024 2560H1536V3072H1024V2560Z" fill="#DCD8CA"/>
<path d="M1024 2560H1536V3072H1024V2560Z" fill="#8C9881"/>
<path d="M1536 2560H2048V3072H1536V2560Z" fill="#DCD8CA"/>
<path d="M1536 2048H2048V2560H1536V2048Z" fill="#DCD8CA"/>
<path d="M1536 2048H2048V2560H1536V2048Z" fill="#8C9881"/>
<path d="M2048 2048H2560V2560H2048V2048Z" fill="#DCD8CA"/>
<path d="M2048 2560H2560V3072H2048V2560Z" fill="#DCD8CA"/>
<path d="M2048 2560H2560V3072H2048V2560Z" fill="#8C9881"/>
<path d="M2560 2560H3072V3072H2560V2560Z" fill="#DCD8CA"/>
<path d="M2560 2048H3072V2560H2560V2048Z" fill="#DCD8CA"/>
<path d="M2560 2048H3072V2560H2560V2048Z" fill="#8C9881"/>
<path d="M3072 2048H3584V2560H3072V2048Z" fill="#DCD8CA"/>
<path d="M3072 2560H3584V3072H3072V2560Z" fill="#DCD8CA"/>
<path d="M3072 2560H3584V3072H3072V2560Z" fill="#8C9881"/>
<path d="M3584 2560H4096V3072H3584V2560Z" fill="#DCD8CA"/>
<path d="M3584 2048H4096V2560H3584V2048Z" fill="#DCD8CA"/>
<path d="M3584 2048H4096V2560H3584V2048Z" fill="#8C9881"/>
<path d="M0 3072H512V3584H0V3072Z" fill="#DCD8CA"/>
<path d="M0 3584H512V4096H0V3584Z" fill="#DCD8CA"/>
<path d="M0 3584H512V4096H0V3584Z" fill="#8C9881"/>
<path d="M512 3584H1024V4096H512V3584Z" fill="#DCD8CA"/>
<path d="M512 3072H1024V3584H512V3072Z" fill="#DCD8CA"/>
<path d="M512 3072H1024V3584H512V3072Z" fill="#8C9881"/>
<path d="M1024 3072H1536V3584H1024V3072Z" fill="#DCD8CA"/>
<path d="M1024 3584H1536V4096H1024V3584Z" fill="#DCD8CA"/>
<path d="M1024 3584H1536V4096H1024V3584Z" fill="#8C9881"/>
<path d="M1536 3584H2048V4096H1536V3584Z" fill="#DCD8CA"/>
<path d="M1536 3072H2048V3584H1536V3072Z" fill="#DCD8CA"/>
<path d="M1536 3072H2048V3584H1536V3072Z" fill="#8C9881"/>
<path d="M2048 3072H2560V3584H2048V3072Z" fill="#DCD8CA"/>
<path d="M2048 3584H2560V4096H2048V3584Z" fill="#DCD8CA"/>
<path d="M2048 3584H2560V4096H2048V3584Z" fill="#8C9881"/>
<path d="M2560 3584H3072V4096H2560V3584Z" fill="#DCD8CA"/>
<path d="M2560 3072H3072V3584H2560V3072Z" fill="#DCD8CA"/>
<path d="M2560 3072H3072V3584H2560V3072Z" fill="#8C9881"/>
<path d="M3072 3072H3584V3584H3072V3072Z" fill="#DCD8CA"/>
<path d="M3072 3584H3584V4096H3072V3584Z" fill="#DCD8CA"/>
<path d="M3072 3584H3584V4096H3072V3584Z" fill="#8C9881"/>
<path d="M3584 3584H4096V4096H3584V3584Z" fill="#DCD8CA"/>
<path d="M3584 3072H4096V3584H3584V3072Z" fill="#DCD8CA"/>
<path d="M3584 3072H4096V3584H3584V3072Z" fill="#8C9881"/>
<path d="M256 625C296.317 625 329 657.683 329 698C329 716.294 322.27 733.016 311.151 745.826C311.428 746.002 311.701 746.184 311.969 746.376L324.898 755.654L335.494 763.258C340.206 766.639 343 772.083 343 777.882V783.776C343 786.506 342.379 789.2 341.185 791.654L333.866 806.689C331.689 811.162 327.151 814 322.177 814H304.884C306.263 831.439 311.262 843.998 318.122 854.089C326.317 866.143 337.254 874.837 348.66 884.256C359.973 893.597 371.649 903.584 380.423 918.007C389.235 932.494 395 951.239 395 978V981H117V978C117 951.239 122.765 932.494 131.577 918.007C140.351 903.584 152.027 893.597 163.34 884.256C174.746 874.837 185.683 866.143 193.878 854.089C200.738 843.998 205.737 831.439 207.116 814H189.823C184.849 814 180.311 811.162 178.134 806.689L170.815 791.654C169.621 789.2 169 786.506 169 783.776V777.882C169 772.083 171.794 766.639 176.506 763.258L187.102 755.654L200.031 746.376C200.298 746.184 200.572 746.002 200.848 745.826C189.729 733.016 183 716.294 183 698C183 657.683 215.683 625 256 625Z" fill="#3E3E3E" stroke="#606060" stroke-width="6"/>
<path d="M768 625C808.317 625 841 657.683 841 698C841 716.294 834.27 733.016 823.151 745.826C823.428 746.002 823.701 746.184 823.969 746.376L836.898 755.654L847.494 763.258C852.206 766.639 855 772.083 855 777.882V783.776C855 786.506 854.379 789.2 853.185 791.654L845.866 806.689C843.689 811.162 839.151 814 834.177 814H816.884C818.263 831.439 823.262 843.998 830.122 854.089C838.317 866.143 849.254 874.837 860.66 884.256C871.973 893.597 883.649 903.584 892.423 918.007C901.235 932.494 907 951.239 907 978V981H629V978C629 951.239 634.765 932.494 643.577 918.007C652.351 903.584 664.027 893.597 675.34 884.256C686.746 874.837 697.683 866.143 705.878 854.089C712.738 843.998 717.737 831.439 719.116 814H701.823C696.849 814 692.311 811.162 690.134 806.689L682.815 791.654C681.621 789.2 681 786.506 681 783.776V777.882C681 772.083 683.794 766.639 688.506 763.258L699.102 755.654L712.031 746.376C712.298 746.184 712.572 746.002 712.848 745.826C701.729 733.016 695 716.294 695 698C695 657.683 727.683 625 768 625Z" fill="#3E3E3E" stroke="#606060" stroke-width="6"/>
<path d="M1280 625C1320.32 625 1353 657.683 1353 698C1353 716.294 1346.27 733.016 1335.15 745.826C1335.43 746.002 1335.7 746.184 1335.97 746.376L1348.9 755.654L1359.49 763.258C1364.21 766.639 1367 772.083 1367 777.882V783.776C1367 786.506 1366.38 789.2 1365.18 791.654L1357.87 806.689C1355.69 811.162 1351.15 814 1346.18 814H1328.88C1330.26 831.439 1335.26 843.998 1342.12 854.089C1350.32 866.143 1361.25 874.837 1372.66 884.256C1383.97 893.597 1395.65 903.584 1404.42 918.007C1413.24 932.494 1419 951.239 1419 978V981H1141V978C1141 951.239 1146.76 932.494 1155.58 918.007C1164.35 903.584 1176.03 893.597 1187.34 884.256C1198.75 874.837 1209.68 866.143 1217.88 854.089C1224.74 843.998 1229.74 831.439 1231.12 814H1213.82C1208.85 814 1204.31 811.162 1202.13 806.689L1194.82 791.654C1193.62 789.2 1193 786.506 1193 783.776V777.882C1193 772.083 1195.79 766.639 1200.51 763.258L1211.1 755.654L1224.03 746.376C1224.3 746.184 1224.57 746.002 1224.85 745.826C1213.73 733.016 1207 716.294 1207 698C1207 657.683 1239.68 625 1280 625Z" fill="#3E3E3E" stroke="#606060" stroke-width="6"/>
<path d="M1272.5 42C1295.97 42 1315 61.0279 1315 84.5C1315 88.0523 1314.56 91.5047 1313.74 94.8057L1313.53 95.6426L1312.91 96.2412C1312.61 96.5327 1312.3 96.8262 1312 97.125C1309.92 99.2047 1307.92 101.46 1306 103.872L1306.01 103.88L1304.09 106.489C1285.92 131.157 1276.11 169.603 1270.88 202.295C1268.27 218.567 1266.82 233.276 1266.03 243.916C1265.63 249.234 1265.39 253.532 1265.26 256.496C1265.23 257.044 1265.21 257.546 1265.19 258H1291.21C1291.23 257.585 1291.25 257.128 1291.27 256.631C1291.41 253.893 1291.64 249.943 1292.01 245.074C1292.76 235.34 1294.07 221.918 1296.35 207.175C1300.89 177.865 1309.33 142.681 1325.14 121.131L1326.99 118.614L1329.43 120.561C1365.01 148.912 1398.29 191.498 1404.53 257.719H1404.53C1408.12 293.888 1394.12 332.755 1370.8 362.537C1369.35 364.392 1367.85 366.214 1366.33 368H1374C1406.58 368 1433 394.415 1433 427V469H1127V427C1127 394.415 1153.42 368 1186 368H1192.76C1191.23 366.214 1189.74 364.392 1188.29 362.537C1164.97 332.755 1150.97 293.888 1154.56 257.719L1154.78 255.453C1162.26 183.84 1201.51 140.256 1240.45 112.415C1233.94 104.948 1230 95.1848 1230 84.5L1230.01 83.4033C1230.6 60.4381 1249.39 42 1272.5 42Z" fill="#3E3E3E" stroke="#606060" stroke-width="6"/>
<path d="M1792 625C1832.32 625 1865 657.683 1865 698C1865 716.294 1858.27 733.016 1847.15 745.826C1847.43 746.002 1847.7 746.184 1847.97 746.376L1860.9 755.654L1871.49 763.258C1876.21 766.639 1879 772.083 1879 777.882V783.776C1879 786.506 1878.38 789.2 1877.18 791.654L1869.87 806.689C1867.69 811.162 1863.15 814 1858.18 814H1840.88C1842.26 831.439 1847.26 843.998 1854.12 854.089C1862.32 866.143 1873.25 874.837 1884.66 884.256C1895.97 893.597 1907.65 903.584 1916.42 918.007C1925.24 932.494 1931 951.239 1931 978V981H1653V978C1653 951.239 1658.76 932.494 1667.58 918.007C1676.35 903.584 1688.03 893.597 1699.34 884.256C1710.75 874.837 1721.68 866.143 1729.88 854.089C1736.74 843.998 1741.74 831.439 1743.12 814H1725.82C1720.85 814 1716.31 811.162 1714.13 806.689L1706.82 791.654C1705.62 789.2 1705 786.506 1705 783.776V777.882C1705 772.083 1707.79 766.639 1712.51 763.258L1723.1 755.654L1736.03 746.376C1736.3 746.184 1736.57 746.002 1736.85 745.826C1725.73 733.016 1719 716.294 1719 698C1719 657.683 1751.68 625 1792 625Z" fill="#3E3E3E" stroke="#606060" stroke-width="6"/>
<path d="M2304 625C2344.32 625 2377 657.683 2377 698C2377 716.294 2370.27 733.016 2359.15 745.826C2359.43 746.002 2359.7 746.184 2359.97 746.376L2372.9 755.654L2383.49 763.258C2388.21 766.639 2391 772.083 2391 777.882V783.776C2391 786.506 2390.38 789.2 2389.18 791.654L2381.87 806.689C2379.69 811.162 2375.15 814 2370.18 814H2352.88C2354.26 831.439 2359.26 843.998 2366.12 854.089C2374.32 866.143 2385.25 874.837 2396.66 884.256C2407.97 893.597 2419.65 903.584 2428.42 918.007C2437.24 932.494 2443 951.239 2443 978V981H2165V978C2165 951.239 2170.76 932.494 2179.58 918.007C2188.35 903.584 2200.03 893.597 2211.34 884.256C2222.75 874.837 2233.68 866.143 2241.88 854.089C2248.74 843.998 2253.74 831.439 2255.12 814H2237.82C2232.85 814 2228.31 811.162 2226.13 806.689L2218.82 791.654C2217.62 789.2 2217 786.506 2217 783.776V777.882C2217 772.083 2219.79 766.639 2224.51 763.258L2235.1 755.654L2248.03 746.376C2248.3 746.184 2248.57 746.002 2248.85 745.826C2237.73 733.016 2231 716.294 2231 698C2231 657.683 2263.68 625 2304 625Z" fill="#3E3E3E" stroke="#606060" stroke-width="6"/>
<path d="M2816 625C2856.32 625 2889 657.683 2889 698C2889 716.294 2882.27 733.016 2871.15 745.826C2871.43 746.002 2871.7 746.184 2871.97 746.376L2884.9 755.654L2895.49 763.258C2900.21 766.639 2903 772.083 2903 777.882V783.776C2903 786.506 2902.38 789.2 2901.18 791.654L2893.87 806.689C2891.69 811.162 2887.15 814 2882.18 814H2864.88C2866.26 831.439 2871.26 843.998 2878.12 854.089C2886.32 866.143 2897.25 874.837 2908.66 884.256C2919.97 893.597 2931.65 903.584 2940.42 918.007C2949.24 932.494 2955 951.239 2955 978V981H2677V978C2677 951.239 2682.76 932.494 2691.58 918.007C2700.35 903.584 2712.03 893.597 2723.34 884.256C2734.75 874.837 2745.68 866.143 2753.88 854.089C2760.74 843.998 2765.74 831.439 2767.12 814H2749.82C2744.85 814 2740.31 811.162 2738.13 806.689L2730.82 791.654C2729.62 789.2 2729 786.506 2729 783.776V777.882C2729 772.083 2731.79 766.639 2736.51 763.258L2747.1 755.654L2760.03 746.376C2760.3 746.184 2760.57 746.002 2760.85 745.826C2749.73 733.016 2743 716.294 2743 698C2743 657.683 2775.68 625 2816 625Z" fill="#3E3E3E" stroke="#606060" stroke-width="6"/>
<path d="M3328 625C3368.32 625 3401 657.683 3401 698C3401 716.294 3394.27 733.016 3383.15 745.826C3383.43 746.002 3383.7 746.184 3383.97 746.376L3396.9 755.654L3407.49 763.258C3412.21 766.639 3415 772.083 3415 777.882V783.776C3415 786.506 3414.38 789.2 3413.18 791.654L3405.87 806.689C3403.69 811.162 3399.15 814 3394.18 814H3376.88C3378.26 831.439 3383.26 843.998 3390.12 854.089C3398.32 866.143 3409.25 874.837 3420.66 884.256C3431.97 893.597 3443.65 903.584 3452.42 918.007C3461.24 932.494 3467 951.239 3467 978V981H3189V978C3189 951.239 3194.76 932.494 3203.58 918.007C3212.35 903.584 3224.03 893.597 3235.34 884.256C3246.75 874.837 3257.68 866.143 3265.88 854.089C3272.74 843.998 3277.74 831.439 3279.12 814H3261.82C3256.85 814 3252.31 811.162 3250.13 806.689L3242.82 791.654C3241.62 789.2 3241 786.506 3241 783.776V777.882C3241 772.083 3243.79 766.639 3248.51 763.258L3259.1 755.654L3272.03 746.376C3272.3 746.184 3272.57 746.002 3272.85 745.826C3261.73 733.016 3255 716.294 3255 698C3255 657.683 3287.68 625 3328 625Z" fill="#3E3E3E" stroke="#606060" stroke-width="6"/>
<path d="M3840 625C3880.32 625 3913 657.683 3913 698C3913 716.294 3906.27 733.016 3895.15 745.826C3895.43 746.002 3895.7 746.184 3895.97 746.376L3908.9 755.654L3919.49 763.258C3924.21 766.639 3927 772.083 3927 777.882V783.776C3927 786.506 3926.38 789.2 3925.18 791.654L3917.87 806.689C3915.69 811.162 3911.15 814 3906.18 814H3888.88C3890.26 831.439 3895.26 843.998 3902.12 854.089C3910.32 866.143 3921.25 874.837 3932.66 884.256C3943.97 893.597 3955.65 903.584 3964.42 918.007C3973.24 932.494 3979 951.239 3979 978V981H3701V978C3701 951.239 3706.76 932.494 3715.58 918.007C3724.35 903.584 3736.03 893.597 3747.34 884.256C3758.75 874.837 3769.68 866.143 3777.88 854.089C3784.74 843.998 3789.74 831.439 3791.12 814H3773.82C3768.85 814 3764.31 811.162 3762.13 806.689L3754.82 791.654C3753.62 789.2 3753 786.506 3753 783.776V777.882C3753 772.083 3755.79 766.639 3760.51 763.258L3771.1 755.654L3784.03 746.376C3784.3 746.184 3784.57 746.002 3784.85 745.826C3773.73 733.016 3767 716.294 3767 698C3767 657.683 3799.68 625 3840 625Z" fill="#3E3E3E" stroke="#606060" stroke-width="6"/>
<path d="M2340.52 37V70H2373.52V136H2341.4L2344.87 149.391L2386.72 145.531L2386.85 145.519H2415.39C2443.14 145.519 2469.26 158.605 2485.87 180.828H2485.87L2487.74 183.329V183.33C2494.99 193.033 2500.17 204.129 2502.93 215.923L2506.19 229.823C2512.21 255.48 2506.41 282.484 2490.4 303.41L2480.85 315.883L2480.77 315.986L2480.68 316.081L2427.86 373.976C2427.37 374.514 2426.85 375.016 2426.3 375.482C2444.33 385.577 2456.52 404.865 2456.52 427V469H2150.52V427C2150.52 404.866 2162.71 385.579 2180.74 375.483C2180.19 375.017 2179.67 374.514 2179.17 373.976L2126.36 316.081L2126.27 315.986L2126.19 315.883L2116.64 303.41C2100.62 282.484 2094.83 255.48 2100.84 229.823L2104.11 215.923C2106.87 204.129 2112.04 193.033 2119.3 183.33L2121.17 180.829L2121.95 179.794C2138.6 158.2 2164.34 145.519 2191.65 145.519H2220.18L2220.32 145.531L2262.17 149.391L2265.64 136H2233.52V70H2266.52V37H2340.52ZM2404.09 222.171C2389.61 211.496 2373.98 214.358 2361.44 220.324C2351.25 225.171 2343.54 231.891 2341.03 234.221V310H2368.37C2372.15 306.851 2388.45 292.869 2400.77 276.048C2407.81 266.437 2413.31 256.215 2414.67 246.771C2415.35 242.098 2415.01 237.688 2413.4 233.629C2411.8 229.581 2408.87 225.696 2404.09 222.171ZM2245.56 220.307C2233.03 214.352 2217.42 211.506 2202.95 222.171C2198.17 225.693 2195.25 229.572 2193.64 233.615C2192.04 237.669 2191.69 242.073 2192.36 246.739C2193.72 256.171 2199.2 266.38 2206.22 275.984C2213.21 285.53 2221.49 294.187 2228.08 300.488C2231.36 303.633 2234.21 306.176 2236.24 307.936C2237.28 308.841 2238.11 309.537 2238.66 310H2266.01V234.221C2263.5 231.888 2255.77 225.155 2245.56 220.307Z" fill="#3E3E3E" stroke="#606060" stroke-width="6"/>
<path d="M1851.73 52C1879.21 52 1901.48 74.3017 1901.48 101.806C1901.48 122.037 1889.43 139.452 1872.12 147.248L1876.19 228.77L1905.27 197.716C1902.98 192.203 1901.72 186.156 1901.72 179.814C1901.72 154.034 1922.6 133.13 1948.36 133.13C1974.12 133.13 1995 154.034 1995 179.814C1995 203.914 1976.76 223.75 1953.33 226.235L1898.11 369.044C1925.38 374.24 1946 398.212 1946 427V469H1640V427C1640 398.54 1660.15 374.787 1686.96 369.229L1631.67 226.235C1608.24 223.75 1590 203.913 1590 179.814C1590 154.034 1610.88 133.13 1636.64 133.13C1662.4 133.13 1683.28 154.034 1683.28 179.814C1683.28 186.157 1682.01 192.203 1679.73 197.716L1708.81 228.77L1712.88 147.248C1695.57 139.452 1683.52 122.037 1683.52 101.806C1683.52 74.3017 1705.79 52 1733.27 52C1760.76 52 1783.03 74.3017 1783.03 101.806C1783.03 115.848 1777.22 128.531 1767.88 137.585L1792.5 205.353L1817.12 137.585C1807.78 128.531 1801.97 115.847 1801.97 101.806C1801.97 74.3017 1824.24 52 1851.73 52Z" fill="#3E3E3E" stroke="#606060" stroke-width="6"/>
<path d="M3262.62 65.9883C3265.24 54.3601 3280.23 51.0946 3287.54 60.4111C3293.53 68.0415 3300.38 76.5964 3306.03 83.2324C3308.86 86.5569 3311.35 89.3557 3313.27 91.3066C3314.23 92.2893 3314.99 92.9983 3315.55 93.4414C3315.65 93.5205 3315.73 93.5828 3315.8 93.6338C3339.09 93.691 3369.54 97.0888 3403.89 122.756C3454.82 160.818 3481.52 212.077 3481.01 275.825C3480.85 296.688 3474.23 322.325 3467.76 342.55C3464.52 352.704 3461.28 361.574 3458.86 367.906C3458.24 369.514 3457.68 370.958 3457.18 372.22C3478.77 380.985 3494 402.17 3494 426.91V469H3188.32V426.91C3188.32 401.093 3204.9 379.149 3228 371.147C3231.02 340.67 3251.75 320.36 3272.3 303.983C3283.06 295.41 3293.44 288.15 3302.08 280.693C3310.66 273.277 3316.68 266.32 3318.8 258.958C3320.15 254.266 3320.18 248.558 3319.81 243.851C3319.78 243.473 3319.75 243.103 3319.72 242.743C3317.7 245.224 3315.06 248.287 3311.99 251.455C3304.83 258.833 3294.82 267.287 3284.4 269.714C3273.62 272.227 3266.6 273.616 3260.74 274.806C3254.9 275.993 3250.24 276.977 3244.07 278.691C3237.42 280.54 3233.13 285.602 3230.35 291.751C3227.69 297.618 3223.02 302.859 3217.47 306.022C3211.89 309.2 3205.17 310.397 3198.75 307.586L3159.59 290.439C3155.47 288.634 3151.87 285.322 3150.36 280.697C3149.45 277.882 3148.5 274.246 3148.15 270.422C3147.79 266.623 3148 262.422 3149.6 258.624C3157.78 239.157 3170.39 223.227 3180.83 211.384C3183.44 208.42 3185.92 205.703 3188.17 203.255C3190.42 200.797 3192.41 198.63 3194.07 196.724C3195.75 194.805 3197.01 193.242 3197.85 191.993C3198.78 190.6 3198.81 190.115 3198.81 190.22C3198.81 180.397 3202.07 168.938 3205.69 159.168C3209.34 149.329 3213.47 140.893 3215.46 137.022C3216.38 135.216 3217.61 133.623 3219.04 132.265L3255.08 98.0068C3255.37 97.7339 3255.57 97.3808 3255.66 96.9922L3262.62 65.9883Z" fill="#3E3E3E" stroke="#606060" stroke-width="6"/>
<path d="M702.625 65.9883C705.239 54.3601 720.227 51.0946 727.543 60.4111C733.535 68.0415 740.378 76.5964 746.026 83.2324C748.856 86.5569 751.348 89.3557 753.266 91.3066C754.231 92.2893 754.995 92.9983 755.547 93.4414C755.645 93.5205 755.73 93.5828 755.8 93.6338C779.088 93.691 809.544 97.0888 843.891 122.756C894.824 160.818 921.522 212.077 921.014 275.825C920.847 296.688 914.231 322.325 907.764 342.55C904.516 352.704 901.28 361.574 898.855 367.906C898.24 369.514 897.676 370.958 897.178 372.22C918.772 380.985 934 402.17 934 426.91V469H628.321V426.91C628.321 401.093 644.903 379.149 667.997 371.147C671.021 340.67 691.748 320.36 712.3 303.983C723.059 295.41 733.443 288.15 742.075 280.693C750.661 273.277 756.683 266.32 758.798 258.958C760.146 254.266 760.177 248.558 759.812 243.851C759.783 243.473 759.75 243.103 759.717 242.743C757.696 245.224 755.061 248.287 751.987 251.455C744.827 258.833 734.819 267.287 724.402 269.714C713.617 272.227 706.6 273.616 700.742 274.806C694.899 275.993 690.237 276.977 684.068 278.691C677.418 280.54 673.134 285.602 670.351 291.751C667.695 297.618 663.022 302.859 657.468 306.022C651.889 309.2 645.167 310.397 638.749 307.586L599.594 290.439C595.47 288.634 591.865 285.322 590.364 280.697C589.451 277.882 588.505 274.246 588.148 270.422C587.794 266.623 588.001 262.422 589.597 258.624C597.777 239.157 610.393 223.227 620.829 211.384C623.441 208.42 625.924 205.703 628.166 203.255C630.418 200.797 632.407 198.63 634.071 196.724C635.747 194.805 637.012 193.242 637.847 191.993C638.778 190.6 638.81 190.115 638.81 190.22C638.81 180.397 642.067 168.938 645.688 159.168C649.335 149.329 653.472 140.893 655.456 137.022C656.382 135.216 657.615 133.623 659.044 132.265L695.081 98.0068C695.368 97.7339 695.569 97.3808 695.656 96.9922L702.625 65.9883Z" fill="#3E3E3E" stroke="#606060" stroke-width="6"/>
<path d="M2808.5 42C2831.97 42 2851 61.0279 2851 84.5C2851 88.0523 2850.56 91.5047 2849.74 94.8057L2849.53 95.6426L2848.91 96.2412C2848.61 96.5327 2848.3 96.8262 2848 97.125C2845.92 99.2047 2843.92 101.46 2842 103.872L2842.01 103.88L2840.09 106.489C2821.92 131.157 2812.11 169.603 2806.88 202.295C2804.27 218.567 2802.82 233.276 2802.03 243.916C2801.63 249.234 2801.39 253.532 2801.26 256.496C2801.23 257.044 2801.21 257.546 2801.19 258H2827.21C2827.23 257.585 2827.25 257.128 2827.27 256.631C2827.41 253.893 2827.64 249.943 2828.01 245.074C2828.76 235.34 2830.07 221.918 2832.35 207.175C2836.89 177.865 2845.33 142.681 2861.14 121.131L2862.99 118.614L2865.43 120.561C2901.01 148.912 2934.29 191.498 2940.53 257.719H2940.53C2944.12 293.888 2930.12 332.755 2906.8 362.537C2905.35 364.392 2903.85 366.214 2902.33 368H2910C2942.58 368 2969 394.415 2969 427V469H2663V427C2663 394.415 2689.42 368 2722 368H2728.76C2727.23 366.214 2725.74 364.392 2724.29 362.537C2700.97 332.755 2686.97 293.888 2690.56 257.719L2690.78 255.453C2698.26 183.84 2737.51 140.256 2776.45 112.415C2769.94 104.948 2766 95.1848 2766 84.5L2766.01 83.4033C2766.6 60.4381 2785.39 42 2808.5 42Z" fill="#3E3E3E" stroke="#606060" stroke-width="6"/>
<g filter="url(#filter0_d_7_264)">
<path d="M3689.52 427.129C3689.52 396.201 3714.59 371.129 3745.52 371.129H3933.52C3964.45 371.129 3989.52 396.201 3989.52 427.129V466H3689.52V427.129Z" fill="#3E3E3E"/>
<path d="M3749.52 204.836H3929.52L3947.52 378.6H3731.52L3749.52 204.836Z" fill="#3E3E3E"/>
<path d="M3802 143.838L3805.77 101.538C3806.63 91.8635 3814.67 84.4012 3824.39 84.2472L3840 84V216.82L3758.63 219.53C3736.74 220.259 3718.14 203.679 3716.4 181.876L3711.51 120.979C3710.91 113.453 3714.83 106.285 3721.5 102.728L3737.03 94.4451C3739.79 92.9762 3742.86 92.2077 3745.98 92.2077H3759.09C3767.84 92.2077 3775.46 98.175 3777.54 106.661L3786.67 143.838H3802Z" fill="#3E3E3E"/>
<path d="M3878 143.838L3874.23 101.538C3873.37 91.8635 3865.33 84.4012 3855.61 84.2472L3840 84V216.82L3921.37 219.53C3943.26 220.259 3961.86 203.679 3963.6 181.876L3968.49 120.979C3969.09 113.453 3965.17 106.285 3958.5 102.728L3942.97 94.4451C3940.21 92.9762 3937.14 92.2077 3934.02 92.2077H3920.91C3912.16 92.2077 3904.54 98.175 3902.46 106.661L3893.33 143.838H3878Z" fill="#3E3E3E"/>
<path d="M3840.05 81L3855.66 81.248C3866.91 81.4263 3876.22 90.0647 3877.22 101.271L3880.75 140.838H3890.97L3899.55 105.945C3901.96 96.1154 3910.78 89.208 3920.91 89.208H3934.02C3937.63 89.208 3941.19 90.0972 3944.38 91.7979L3959.91 100.081C3967.63 104.199 3972.18 112.5 3971.48 121.219L3966.59 182.116C3965.08 201.059 3951.71 216.322 3934.21 221.038L3949.68 370.37C3974.41 377.398 3992.52 400.149 3992.52 427.129V469H3686.52V427.129C3686.52 400.149 3704.63 377.398 3729.35 370.37L3744.85 220.775C3727.82 215.774 3714.9 200.719 3713.4 182.116L3708.52 121.219C3707.82 112.5 3712.37 104.2 3720.09 100.081L3735.62 91.7979C3738.81 90.0972 3742.37 89.208 3745.98 89.208H3759.09C3769.22 89.2081 3778.04 96.1154 3780.45 105.945L3789.02 140.838H3799.25L3802.78 101.271C3803.78 90.0648 3813.09 81.4265 3824.34 81.248L3839.95 81H3840.05Z" stroke="#606060" stroke-width="6"/>
</g>
<g filter="url(#filter1_d_7_264)">
<path d="M105.519 427.129C105.519 396.201 130.591 371.129 161.519 371.129H349.519C380.447 371.129 405.519 396.201 405.519 427.129V466H105.519V427.129Z" fill="#3E3E3E"/>
<path d="M165.519 204.836H345.519L363.519 378.6H147.519L165.519 204.836Z" fill="#3E3E3E"/>
<path d="M217.998 143.838L221.767 101.538C222.629 91.8635 230.667 84.4012 240.391 84.2472L256 84V216.82L174.631 219.53C152.742 220.259 134.143 203.679 132.395 181.876L127.513 120.979C126.909 113.453 130.832 106.285 137.501 102.728L153.031 94.4451C155.785 92.9762 158.86 92.2077 161.982 92.2077H175.088C183.838 92.2077 191.456 98.175 193.541 106.661L202.673 143.838H217.998Z" fill="#3E3E3E"/>
<path d="M294.001 143.838L290.233 101.538C289.371 91.8635 281.333 84.4012 271.609 84.2472L256 84V216.82L337.369 219.53C359.258 220.259 377.857 203.679 379.605 181.876L384.487 120.979C385.091 113.453 381.168 106.285 374.499 102.728L358.969 94.4451C356.215 92.9762 353.14 92.2077 350.018 92.2077H336.912C328.162 92.2077 320.544 98.175 318.459 106.661L309.327 143.838H294.001Z" fill="#3E3E3E"/>
<path d="M256.047 81L271.656 81.248C282.913 81.4263 292.223 90.0647 293.221 101.271L296.746 140.838H306.975L315.545 105.945C317.96 96.1154 326.784 89.208 336.912 89.208H350.018C353.632 89.208 357.191 90.0972 360.38 91.7979L375.91 100.081C383.632 104.199 388.177 112.5 387.478 121.219L382.595 182.116C381.076 201.059 367.708 216.322 350.213 221.038L365.682 370.37C390.409 377.398 408.519 400.149 408.519 427.129V469H102.519V427.129C102.519 400.149 120.628 377.398 145.355 370.37L160.851 220.775C143.817 215.774 130.896 200.719 129.405 182.116L124.522 121.219C123.823 112.5 128.367 104.2 136.089 100.081L151.619 91.7979C154.808 90.0972 158.367 89.208 161.982 89.208H175.088C185.216 89.2081 194.04 96.1154 196.454 105.945L205.025 140.838H215.253L218.779 101.271C219.777 90.0648 229.087 81.4265 240.343 81.248L255.952 81H256.047Z" stroke="#606060" stroke-width="6"/>
</g>
</g>
<defs>
<filter id="filter0_d_7_264" x="3679.52" y="77.9993" width="320" height="402.001" filterUnits="userSpaceOnUse" color-interpolation-filters="sRGB">
<feFlood flood-opacity="0" result="BackgroundImageFix"/>
<feColorMatrix in="SourceAlpha" type="matrix" values="0 0 0 0 0 0 0 0 0 0 0 0 0 0 0 0 0 0 127 0" result="hardAlpha"/>
<feOffset dy="4"/>
<feGaussianBlur stdDeviation="2"/>
<feComposite in2="hardAlpha" operator="out"/>
<feColorMatrix type="matrix" values="0 0 0 0 0 0 0 0 0 0 0 0 0 0 0 0 0 0 0.25 0"/>
<feBlend mode="normal" in2="BackgroundImageFix" result="effect1_dropShadow_7_264"/>
<feBlend mode="normal" in="SourceGraphic" in2="effect1_dropShadow_7_264" result="shape"/>
</filter>
<filter id="filter1_d_7_264" x="95.5188" y="77.9993" width="320" height="402.001" filterUnits="userSpaceOnUse" color-interpolation-filters="sRGB">
<feFlood flood-opacity="0" result="BackgroundImageFix"/>
<feColorMatrix in="SourceAlpha" type="matrix" values="0 0 0 0 0 0 0 0 0 0 0 0 0 0 0 0 0 0 127 0" result="hardAlpha"/>
<feOffset dy="4"/>
<feGaussianBlur stdDeviation="2"/>
<feComposite in2="hardAlpha" operator="out"/>
<feColorMatrix type="matrix" values="0 0 0 0 0 0 0 0 0 0 0 0 0 0 0 0 0 0 0.25 0"/>
<feBlend mode="normal" in2="BackgroundImageFix" result="effect1_dropShadow_7_264"/>
<feBlend mode="normal" in="SourceGraphic" in2="effect1_dropShadow_7_264" result="shape"/>
</filter>
<clipPath id="clip0_7_264">
<rect width="4096" height="4096" fill="white"/>
</clipPath>
</defs>
</svg>
