<svg width="512" height="512" viewBox="0 0 512 512" fill="none" xmlns="http://www.w3.org/2000/svg">
<path d="M256 113C296.317 113 329 145.683 329 186C329 204.294 322.27 221.016 311.151 233.826C311.428 234.002 311.701 234.184 311.969 234.376L324.898 243.654L335.494 251.258C340.206 254.639 343 260.083 343 265.882V271.776C343 274.506 342.379 277.2 341.185 279.654L333.866 294.689C331.689 299.162 327.151 302 322.177 302H304.884C306.263 319.439 311.262 331.998 318.122 342.089C326.317 354.143 337.254 362.837 348.66 372.256C359.973 381.597 371.649 391.584 380.423 406.007C389.235 420.494 395 439.239 395 466V469H117V466C117 439.239 122.765 420.494 131.577 406.007C140.351 391.584 152.027 381.597 163.34 372.256C174.746 362.837 185.683 354.143 193.878 342.089C200.738 331.998 205.737 319.439 207.116 302H189.823C184.849 302 180.311 299.162 178.134 294.689L170.815 279.654C169.621 277.2 169 274.506 169 271.776V265.882C169 260.083 171.794 254.639 176.506 251.258L187.102 243.654L200.031 234.376C200.298 234.184 200.572 234.002 200.848 233.826C189.729 221.016 183 204.294 183 186C183 145.683 215.683 113 256 113Z" fill="#3E3E3E" stroke="#606060" stroke-width="6"/>
</svg>
