<svg width="512" height="512" viewBox="0 0 512 512" fill="none" xmlns="http://www.w3.org/2000/svg">
<g filter="url(#filter0_d_7_188)">
<path d="M105.519 427.129C105.519 396.201 130.591 371.129 161.519 371.129H349.519C380.447 371.129 405.519 396.201 405.519 427.129V466H105.519V427.129Z" fill="#3E3E3E"/>
<path d="M165.519 204.836H345.519L363.519 378.6H147.519L165.519 204.836Z" fill="#3E3E3E"/>
<path d="M217.998 143.838L221.767 101.538C222.629 91.8635 230.667 84.4012 240.391 84.2472L256 84V216.82L174.631 219.53C152.742 220.259 134.143 203.679 132.395 181.876L127.513 120.979C126.909 113.453 130.832 106.285 137.501 102.728L153.031 94.4451C155.785 92.9762 158.86 92.2077 161.982 92.2077H175.088C183.838 92.2077 191.456 98.175 193.541 106.661L202.673 143.838H217.998Z" fill="#3E3E3E"/>
<path d="M294.001 143.838L290.233 101.538C289.371 91.8635 281.333 84.4012 271.609 84.2472L256 84V216.82L337.369 219.53C359.258 220.259 377.857 203.679 379.605 181.876L384.487 120.979C385.091 113.453 381.168 106.285 374.499 102.728L358.969 94.4451C356.215 92.9762 353.14 92.2077 350.018 92.2077H336.912C328.162 92.2077 320.544 98.175 318.459 106.661L309.327 143.838H294.001Z" fill="#3E3E3E"/>
<path d="M256.047 81L271.656 81.248C282.913 81.4263 292.223 90.0647 293.221 101.271L296.746 140.838H306.975L315.545 105.945C317.96 96.1154 326.784 89.208 336.912 89.208H350.018C353.632 89.208 357.191 90.0972 360.38 91.7979L375.91 100.081C383.632 104.199 388.177 112.5 387.478 121.219L382.595 182.116C381.076 201.059 367.708 216.322 350.213 221.038L365.682 370.37C390.409 377.398 408.519 400.149 408.519 427.129V469H102.519V427.129C102.519 400.149 120.628 377.398 145.355 370.37L160.851 220.775C143.817 215.774 130.896 200.719 129.405 182.116L124.522 121.219C123.823 112.5 128.367 104.2 136.089 100.081L151.619 91.7979C154.808 90.0972 158.367 89.208 161.982 89.208H175.088C185.216 89.2081 194.04 96.1154 196.454 105.945L205.025 140.838H215.253L218.779 101.271C219.777 90.0648 229.087 81.4265 240.343 81.248L255.952 81H256.047Z" stroke="#606060" stroke-width="6"/>
</g>
<defs>
<filter id="filter0_d_7_188" x="95.5188" y="77.9992" width="320" height="402.001" filterUnits="userSpaceOnUse" color-interpolation-filters="sRGB">
<feFlood flood-opacity="0" result="BackgroundImageFix"/>
<feColorMatrix in="SourceAlpha" type="matrix" values="0 0 0 0 0 0 0 0 0 0 0 0 0 0 0 0 0 0 127 0" result="hardAlpha"/>
<feOffset dy="4"/>
<feGaussianBlur stdDeviation="2"/>
<feComposite in2="hardAlpha" operator="out"/>
<feColorMatrix type="matrix" values="0 0 0 0 0 0 0 0 0 0 0 0 0 0 0 0 0 0 0.25 0"/>
<feBlend mode="normal" in2="BackgroundImageFix" result="effect1_dropShadow_7_188"/>
<feBlend mode="normal" in="SourceGraphic" in2="effect1_dropShadow_7_188" result="shape"/>
</filter>
</defs>
</svg>
