<svg width="512" height="512" viewBox="0 0 512 512" fill="none" xmlns="http://www.w3.org/2000/svg">
<path d="M190.625 65.9883C193.239 54.3601 208.227 51.0946 215.543 60.4111C221.535 68.0415 228.378 76.5964 234.026 83.2324C236.856 86.5569 239.348 89.3557 241.266 91.3066C242.231 92.2893 242.995 92.9983 243.547 93.4414C243.645 93.5205 243.73 93.5828 243.8 93.6338C267.088 93.691 297.544 97.0888 331.891 122.756C382.824 160.818 409.522 212.077 409.014 275.825C408.847 296.688 402.231 322.325 395.764 342.55C392.516 352.704 389.28 361.574 386.855 367.906C386.24 369.514 385.676 370.958 385.178 372.22C406.772 380.985 422 402.17 422 426.91V469H116.321V426.91C116.321 401.093 132.903 379.149 155.997 371.147C159.021 340.67 179.748 320.36 200.3 303.983C211.059 295.41 221.443 288.15 230.075 280.693C238.661 273.277 244.683 266.32 246.798 258.958C248.146 254.266 248.177 248.558 247.812 243.851C247.783 243.473 247.75 243.103 247.717 242.743C245.696 245.224 243.061 248.287 239.987 251.455C232.827 258.833 222.819 267.287 212.402 269.714C201.617 272.227 194.6 273.616 188.742 274.806C182.899 275.993 178.237 276.977 172.068 278.691C165.418 280.54 161.134 285.602 158.351 291.751C155.695 297.618 151.022 302.859 145.468 306.022C139.889 309.2 133.167 310.397 126.749 307.586L87.5938 290.439C83.4703 288.634 79.8654 285.322 78.3643 280.697C77.4506 277.882 76.505 274.246 76.1484 270.422C75.7942 266.623 76.0007 262.422 77.5967 258.624C85.777 239.157 98.3932 223.227 108.829 211.384C111.441 208.42 113.924 205.703 116.166 203.255C118.418 200.797 120.407 198.63 122.071 196.724C123.747 194.805 125.012 193.242 125.847 191.993C126.778 190.6 126.81 190.115 126.81 190.22C126.81 180.397 130.067 168.938 133.688 159.168C137.335 149.329 141.472 140.893 143.456 137.022C144.382 135.216 145.615 133.623 147.044 132.265L183.081 98.0068C183.368 97.7339 183.569 97.3808 183.656 96.9922L190.625 65.9883Z" fill="#E7E7E7" stroke="#BFBFBF" stroke-width="6"/>
</svg>
