<svg width="512" height="512" viewBox="0 0 512 512" fill="none" xmlns="http://www.w3.org/2000/svg">
<path d="M315.727 52C343.21 52 365.484 74.3017 365.484 101.806C365.484 122.037 353.431 139.452 336.118 147.248L340.189 228.77L369.273 197.716C366.985 192.203 365.719 186.156 365.719 179.814C365.719 154.034 386.598 133.13 412.359 133.13C438.121 133.13 459 154.034 459 179.814C459 203.914 440.756 223.75 417.333 226.235L362.108 369.044C389.383 374.24 410 398.212 410 427V469H104V427C104 398.54 124.15 374.787 150.962 369.229L95.666 226.235C72.2439 223.75 54 203.913 54 179.814C54.0002 154.034 74.879 133.13 100.641 133.13C126.402 133.13 147.281 154.034 147.281 179.814C147.281 186.157 146.014 192.203 143.726 197.716L172.81 228.77L176.881 147.248C159.569 139.452 147.516 122.037 147.516 101.806C147.516 74.3017 169.79 52 197.273 52C224.757 52 247.031 74.3017 247.031 101.806C247.031 115.848 241.223 128.531 231.882 137.585L256.5 205.353L281.117 137.585C271.777 128.531 265.969 115.847 265.969 101.806C265.969 74.3017 288.243 52 315.727 52Z" fill="#E7E7E7" stroke="#BFBFBF" stroke-width="6"/>
</svg>
