<svg width="512" height="512" viewBox="0 0 512 512" fill="none" xmlns="http://www.w3.org/2000/svg">
<path d="M256.047 81L271.656 81.248C282.913 81.4263 292.223 90.0647 293.221 101.271L296.746 140.838H306.975L315.545 105.945C317.96 96.1154 326.784 89.208 336.912 89.208H350.018C353.632 89.208 357.191 90.0972 360.38 91.7979L375.91 100.081C383.632 104.199 388.177 112.5 387.478 121.219L382.595 182.116C381.076 201.059 367.708 216.322 350.213 221.038L365.682 370.37C390.409 377.398 408.519 400.149 408.519 427.129V469H102.519V427.129C102.519 400.149 120.628 377.398 145.355 370.37L160.851 220.775C143.817 215.774 130.896 200.719 129.405 182.116L124.522 121.219C123.823 112.5 128.367 104.2 136.089 100.081L151.619 91.7979C154.808 90.0972 158.367 89.208 161.982 89.208H175.088C185.216 89.2081 194.04 96.1154 196.454 105.945L205.025 140.838H215.253L218.779 101.271C219.777 90.0648 229.087 81.4265 240.343 81.248L255.952 81H256.047Z" fill="#E7E7E7" stroke="#BFBFBF" stroke-width="6"/>
</svg>
